<?xml version="1.0" encoding="UTF-8"?>
<svg xmlns="http://www.w3.org/2000/svg" viewBox="0 0 96 96" role="img" aria-labelledby="title desc">
  <title>?????</title>
  <desc>??????????????????????</desc>
  <rect width="96" height="96" rx="24" fill="#f5ecde"/>
  <circle cx="48" cy="48" r="38" fill="#a45b43"/>
  <path d="M 20 80 C 28 65 39 60 49 60 C 59 60 70 65 78 80 L 78 86 L 20 86 Z" fill="#c98a61"/>
  <path d="M 33 78 C 35 70 41 64 49 64 C 57 64 63 70 65 78" stroke="#efe2c9" stroke-width="2" stroke-linecap="round" opacity="0.35" fill="none"/>
  
      <path d="M 35 40 C 35 28 42 21 51 21 C 59 21 65 25 67 34 C 63 29 58 27 52 27 C 44 27 38 31 35 40 Z" fill="#231916"/>
      <circle cx="39" cy="29" r="3.8" fill="#231916"/><circle cx="45" cy="23" r="4.1" fill="#231916"/><circle cx="52" cy="22" r="4" fill="#231916"/><circle cx="59" cy="25" r="3.6" fill="#231916"/>
    
  
  <path d="M 39 60 C 41 53 45 49 49 49 C 53 49 57 53 59 60 L 56 70 C 51 73 47 73 42 70 Z" fill="#efe2c9"/>
  <ellipse cx="49" cy="39" rx="13" ry="16" fill="#efe2c9"/>
  
  <path d="M 55 36 C 58 38 58 42 55 44 C 54.5 45 54.7 46 56.8 47.3" stroke="#231916" stroke-width="2.2" stroke-linecap="round" fill="none"/>
  <path d="M 46.8 36.9 L 50.3 36.9" stroke="#231916" stroke-width="1.8" stroke-linecap="round"/>
  <path d="M 49.4 46.4 C 50.8 47.2 52.6 47.2 54.1 46.3" stroke="#231916" stroke-width="1.6" stroke-linecap="round" fill="none"/>
  
      <path d="M 40 46 C 42 44 45 43 47 44 C 45 48 43 50 40 50 Z" fill="#231916"/>
      <path d="M 58 45 C 60 44 61 46 61 49 C 59 49 57.5 48 57 46 Z" fill="#231916"/>
    
  
  
      <path d="M 41 22 c 1.8 -3.2 5 -4.8 7.4 -4.1 c -0.8 3.2 -3.2 5.6 -6.6 6 z" fill="#efe2c9" transform="rotate(-18 41 22)" /><path d="M 48 18 c 1.8 -3.2 5 -4.8 7.4 -4.1 c -0.8 3.2 -3.2 5.6 -6.6 6 z" fill="#efe2c9" transform="rotate(-4 48 18)" /><path d="M 56 20 c 1.8 -3.2 5 -4.8 7.4 -4.1 c -0.8 3.2 -3.2 5.6 -6.6 6 z" fill="#efe2c9" transform="rotate(14 56 20)" />
      <circle cx="67" cy="28" r="1.8" fill="#efe2c9" opacity="0.75"/>
    
  <circle cx="48" cy="48" r="38" stroke="#8b4734" stroke-width="2" fill="none"/>
</svg>