<?xml version="1.0" encoding="UTF-8"?>
<svg xmlns="http://www.w3.org/2000/svg" viewBox="0 0 96 96" role="img" aria-labelledby="title desc">
  <title>????????</title>
  <desc>?????????????????????</desc>
  <rect width="96" height="96" rx="24" fill="#f5ecde"/>
  <circle cx="48" cy="48" r="38" fill="#a45b43"/>
  <path d="M 20 80 C 28 65 39 60 49 60 C 59 60 70 65 78 80 L 78 86 L 20 86 Z" fill="#c98a61"/>
  <path d="M 33 78 C 35 70 41 64 49 64 C 57 64 63 70 65 78" stroke="#efe2c9" stroke-width="2" stroke-linecap="round" opacity="0.35" fill="none"/>
  
      <path d="M 34 41 C 34 28 42 20 52 20 C 59 20 65 25 67 32 C 63 28 59 25 53 25 C 44 25 37 30 34 41 Z" fill="#231916"/>
      <circle cx="38" cy="32" r="4" fill="#231916"/><circle cx="43" cy="25" r="4.5" fill="#231916"/><circle cx="50" cy="22" r="4.2" fill="#231916"/><circle cx="58" cy="24" r="4" fill="#231916"/><circle cx="63" cy="29" r="3.8" fill="#231916"/>
    
  
  <path d="M 39 60 C 41 53 45 49 49 49 C 53 49 57 53 59 60 L 56 70 C 51 73 47 73 42 70 Z" fill="#efe2c9"/>
  <ellipse cx="49" cy="38" rx="13" ry="16" fill="#efe2c9"/>
  
  <path d="M 55 35 C 58 37 58 41 55 43 C 54.5 44 54.7 45 56.8 46.3" stroke="#231916" stroke-width="2.2" stroke-linecap="round" fill="none"/>
  <path d="M 46.8 35.9 L 50.3 35.9" stroke="#231916" stroke-width="1.8" stroke-linecap="round"/>
  <path d="M 49.4 45.4 C 50.8 46.2 52.6 46.2 54.1 45.3" stroke="#231916" stroke-width="1.6" stroke-linecap="round" fill="none"/>
  
      <circle cx="40" cy="41" r="3.6" fill="#231916"/><circle cx="43" cy="46" r="3.1" fill="#231916"/><circle cx="58" cy="46" r="2.8" fill="#231916"/>
    
  
  
      <path d="M 39 21 c 1.8 -3.2 5 -4.8 7.4 -4.1 c -0.8 3.2 -3.2 5.6 -6.6 6 z" fill="#efe2c9" transform="rotate(-22 39 21)" /><path d="M 46 18 c 1.8 -3.2 5 -4.8 7.4 -4.1 c -0.8 3.2 -3.2 5.6 -6.6 6 z" fill="#efe2c9" transform="rotate(-10 46 18)" /><path d="M 54 18 c 1.8 -3.2 5 -4.8 7.4 -4.1 c -0.8 3.2 -3.2 5.6 -6.6 6 z" fill="#efe2c9" transform="rotate(8 54 18)" /><path d="M 61 21 c 1.8 -3.2 5 -4.8 7.4 -4.1 c -0.8 3.2 -3.2 5.6 -6.6 6 z" fill="#efe2c9" transform="rotate(22 61 21)" />
    
  <circle cx="48" cy="48" r="38" stroke="#8b4734" stroke-width="2" fill="none"/>
</svg>