<?xml version="1.0" encoding="UTF-8"?>
<svg xmlns="http://www.w3.org/2000/svg" viewBox="0 0 96 96" role="img" aria-labelledby="title desc">
  <title>???????</title>
  <desc>?????????????????????</desc>
  <rect width="96" height="96" rx="24" fill="#f5ecde"/>
  <circle cx="48" cy="48" r="38" fill="#a45b43"/>
  <path d="M 20 80 C 28 65 39 60 49 60 C 59 60 70 65 78 80 L 78 86 L 20 86 Z" fill="#c98a61"/>
  <path d="M 33 78 C 35 70 41 64 49 64 C 57 64 63 70 65 78" stroke="#efe2c9" stroke-width="2" stroke-linecap="round" opacity="0.35" fill="none"/>
  
      <path d="M 34 41 C 34 27 42 19 52 19 C 60 19 67 26 68 36 C 64 31 59 28 52 28 C 43 28 37 32 34 41 Z" fill="#231916"/>
      <circle cx="58" cy="18" r="5.5" fill="#231916"/>
    
  
  <path d="M 39 60 C 41 53 45 49 49 49 C 53 49 57 53 59 60 L 56 70 C 51 73 47 73 42 70 Z" fill="#efe2c9"/>
  <ellipse cx="49" cy="39" rx="13" ry="16" fill="#efe2c9"/>
  
  <path d="M 55 36 C 58 38 58 42 55 44 C 54.5 45 54.7 46 56.8 47.3" stroke="#231916" stroke-width="2.2" stroke-linecap="round" fill="none"/>
  <path d="M 46.8 36.9 L 50.3 36.9" stroke="#231916" stroke-width="1.8" stroke-linecap="round"/>
  <path d="M 49.4 46.4 C 50.8 47.2 52.6 47.2 54.1 46.3" stroke="#231916" stroke-width="1.6" stroke-linecap="round" fill="none"/>
  
      <path d="M 39 44 C 42 42 45 42 47 43 C 45 47 42.5 49.5 39.5 50 Z" fill="#231916"/>
      <path d="M 58 43 C 61 44 62 47 61 50 C 58.5 49 57.3 46.8 57 44.2 Z" fill="#231916"/>
    
  
  
      <path d="M 44 71 C 47 69 51 69 54 71" stroke="#efe2c9" stroke-width="1.8" stroke-linecap="round" opacity="0.8"/>
      <path d="M 38 22 c 1.8 -3.2 5 -4.8 7.4 -4.1 c -0.8 3.2 -3.2 5.6 -6.6 6 z" fill="#efe2c9" transform="rotate(-18 38 22)" /><path d="M 45 18 c 1.8 -3.2 5 -4.8 7.4 -4.1 c -0.8 3.2 -3.2 5.6 -6.6 6 z" fill="#efe2c9" transform="rotate(-6 45 18)" /><path d="M 53 18 c 1.8 -3.2 5 -4.8 7.4 -4.1 c -0.8 3.2 -3.2 5.6 -6.6 6 z" fill="#efe2c9" transform="rotate(8 53 18)" />
    
  <circle cx="48" cy="48" r="38" stroke="#8b4734" stroke-width="2" fill="none"/>
</svg>