<?xml version="1.0" encoding="UTF-8"?>
<svg xmlns="http://www.w3.org/2000/svg" viewBox="0 0 96 96" role="img" aria-labelledby="title desc" data-avatar-style="greek-profile-v2" data-character="apollodorus">
  <title>Apollodorus avatar</title>
  <desc>Intense narrator with gaunt profile and beard.</desc>
  <rect width="96" height="96" rx="24" fill="#f4ecdf"/>
  <circle cx="48" cy="48" r="38" fill="#a85e45"/>
  <path d="M 21 85 C 28 71 38 63 50 60 C 62 63 72 71 79 85 L 79 86 L 21 86 Z" fill="#221714"/>
  <path d="M 31 78 C 35 71 41 66 50 63 C 58 66 64 71 68 78" stroke="#f2e5c9" stroke-width="2.1" stroke-linecap="round" opacity="0.28" fill="none"/>
  <path d="M 41 34 C 44 27 49 23 56 23 C 62 23 67 27 69 33 C 65 30 61 29 56 29 C 50 29 45 30.5 41 34 Z" fill="#221714"/><path d="M 40 42 C 42 39 44 37 47 35.5" stroke="#221714" stroke-width="4" stroke-linecap="round"/>
  <path d="M 36 72 C 35 64 35 54 37 44 C 39 33 44 26 51 23 C 57 20 63 21 67 26 C 71 30 72 35 72 40 C 72 44 71 47 69 49 C 67 51 64 52 61 52 C 62 54 62 57 61 60 C 59 65 55 69 50 72 C 45 74 41 74 36 72 Z" fill="#221714"/>
  <path d="M 48 27 C 52 26 56 27 59 30 C 61 33 62 37 61 40 C 60 44 58 46 55 48 C 56 50 56 52 55.5 54.5 C 54.5 58 52 60.5 48.5 63 C 45.5 64.5 43 64.5 40.5 62" stroke="#f2e5c9" stroke-width="2" stroke-linecap="round" stroke-linejoin="round" fill="none"/>
  <path d="M 50 39 L 53 39" stroke="#f2e5c9" stroke-width="1.8" stroke-linecap="round" fill="none"/>
  <path d="M 49 54 C 51 55 53 55 55 54" stroke="#f2e5c9" stroke-width="1.6" stroke-linecap="round" fill="none"/>
  <path d="M 43 67 C 45 68.5 47.5 69.5 50 69.5" stroke="#f2e5c9" stroke-width="1.4" stroke-linecap="round" opacity="0.75" fill="none"/>
  <path d="M 46 55 C 49 55 52 56 55 60 C 56 63 55 66.5 52 68.5 C 48 70 43.5 68.5 40.5 65 C 39.8 61.5 40.8 58 43 56.5 Z" fill="#221714"/>
  <circle cx="48" cy="48" r="38" fill="none" stroke="#8f4b36" stroke-width="2"/>
</svg>