<?xml version="1.0" encoding="UTF-8"?>
<svg xmlns="http://www.w3.org/2000/svg" viewBox="0 0 96 96" role="img" aria-labelledby="title desc">
  <title>???????</title>
  <desc>?????????????????</desc>
  <rect width="96" height="96" rx="24" fill="#f5ecde"/>
  <circle cx="48" cy="48" r="38" fill="#a45b43"/>
  <path d="M 20 80 C 28 65 39 60 49 60 C 59 60 70 65 78 80 L 78 86 L 20 86 Z" fill="#231916"/>
  <path d="M 33 78 C 35 70 41 64 49 64 C 57 64 63 70 65 78" stroke="#efe2c9" stroke-width="2" stroke-linecap="round" opacity="0.35" fill="none"/>
  
      <path d="M 33 41 C 33 27 42 18 53 18 C 62 18 69 25 69 35 C 66 30 61 27 55 27 C 44 27 36 32 33 41 Z" fill="#231916"/>
      <circle cx="38" cy="28" r="4.2" fill="#231916"/><circle cx="45" cy="22" r="4.8" fill="#231916"/><circle cx="53" cy="20" r="4.5" fill="#231916"/><circle cx="61" cy="23" r="4.3" fill="#231916"/><circle cx="66" cy="30" r="3.8" fill="#231916"/>
    
  
  <path d="M 39 60 C 41 53 45 49 49 49 C 53 49 57 53 59 60 L 56 70 C 51 73 47 73 42 70 Z" fill="#efe2c9"/>
  <ellipse cx="49" cy="37" rx="14" ry="17" fill="#efe2c9"/>
  
  <path d="M 55 34 C 58 36 58 40 55 42 C 54.5 43 54.7 44 56.8 45.3" stroke="#231916" stroke-width="2.2" stroke-linecap="round" fill="none"/>
  <path d="M 46.8 34.9 L 50.3 34.9" stroke="#231916" stroke-width="1.8" stroke-linecap="round"/>
  <path d="M 49.4 44.4 C 50.8 45.2 52.6 45.2 54.1 44.3" stroke="#231916" stroke-width="1.6" stroke-linecap="round" fill="none"/>
  
      <circle cx="39" cy="42" r="3.8" fill="#231916"/><circle cx="41" cy="47" r="3.3" fill="#231916"/><circle cx="58" cy="47" r="3.2" fill="#231916"/>
    
  
      <path d="M 41 48 C 47 47 54 49 60 55 C 62 60 59 66 52 69 C 44 68 38 62 37 55 C 37 50 38.5 48.5 41 48 Z" fill="#231916"/>
      <path d="M 44 54 C 48 53 54 55 57 60" stroke="#efe2c9" stroke-width="1.4" stroke-linecap="round" fill="none" opacity="0.5"/>
    
  
  <circle cx="48" cy="48" r="38" stroke="#8b4734" stroke-width="2" fill="none"/>
</svg>