<?xml version="1.0" encoding="UTF-8"?>
<svg xmlns="http://www.w3.org/2000/svg" viewBox="0 0 96 96" role="img" aria-labelledby="title desc">
  <title>????????</title>
  <desc>?????????????????</desc>
  <rect width="96" height="96" rx="24" fill="#f5ecde"/>
  <circle cx="48" cy="48" r="38" fill="#a45b43"/>
  <path d="M 20 80 C 28 65 39 60 49 60 C 59 60 70 65 78 80 L 78 86 L 20 86 Z" fill="#231916"/>
  <path d="M 33 78 C 35 70 41 64 49 64 C 57 64 63 70 65 78" stroke="#efe2c9" stroke-width="2" stroke-linecap="round" opacity="0.35" fill="none"/>
  
      <path d="M 35 40 C 35 30 42 22 50 22 C 57 22 63 26 65 34 C 61 30 56 28 50 28 C 43 28 38 32 35 40 Z" fill="#231916"/>
    
  
  <path d="M 38 60 C 40 53 44 49 48 49 C 52 49 56 53 58 60 L 55 70 C 50 73 46 73 41 70 Z" fill="#efe2c9"/>
  <ellipse cx="48" cy="38" rx="13" ry="16" fill="#efe2c9"/>
  
  <path d="M 54 35 C 57 37 57 41 54 43 C 53.5 44 53.7 45 55.8 46.3" stroke="#231916" stroke-width="2.2" stroke-linecap="round" fill="none"/>
  <path d="M 45.8 35.9 L 49.3 35.9" stroke="#231916" stroke-width="1.8" stroke-linecap="round"/>
  <path d="M 48.4 45.4 C 49.8 46.2 51.6 46.2 53.1 45.3" stroke="#231916" stroke-width="1.6" stroke-linecap="round" fill="none"/>
  <path d="M 40 45 C 42 44 44 43.5 46 44.5 C 44.5 47 42.5 48 40 48 Z" fill="#231916"/>
  
      <path d="M 42 50 C 45 49.5 49 50 52 52.5 C 53 54.5 52.4 56.8 49.8 58 C 46 58.3 42.2 56 41 53 C 41 51.6 41.3 50.6 42 50 Z" fill="#231916"/>
    
  
  <circle cx="48" cy="48" r="38" stroke="#8b4734" stroke-width="2" fill="none"/>
</svg>