<?xml version="1.0" encoding="UTF-8"?>
<svg xmlns="http://www.w3.org/2000/svg" viewBox="0 0 96 96" role="img" aria-labelledby="title desc" data-avatar-style="greek-profile-v2" data-character="diotima">
  <title>Diotima avatar</title>
  <desc>Veiled priestess and teacher.</desc>
  <rect width="96" height="96" rx="24" fill="#f4ecdf"/>
  <circle cx="48" cy="48" r="38" fill="#a85e45"/>
  <path d="M 21 85 C 28 71 38 63 50 60 C 62 63 72 71 79 85 L 79 86 L 21 86 Z" fill="#cb8c61"/>
  <path d="M 31 78 C 35 71 41 66 50 63 C 58 66 64 71 68 78" stroke="#f2e5c9" stroke-width="2.1" stroke-linecap="round" opacity="0.28" fill="none"/>
  <path d="M 37 49 C 39 28 47 20 56 20 C 65 20 72 28 74 43 C 70 38 65 36 58 36 C 49 36 43 40 37 49 Z" fill="#221714"/><path d="M 38 47 C 41 29 48 22 56 22 C 63 22 69 28 71 39 C 67 35 63 33 58 33 C 50 33 44 37 38 47 Z" fill="#f2e5c9" opacity="0.95"/>
  <path d="M 38 71 C 37 63 37 55 39 46 C 41 35 46 27 53 23 C 59 20 66 21 70 26 C 74 30 75 35 75 40 C 75 44 73 47 71 49 C 69 51 67 52 64 53 C 66 56 67 58 67 61 C 67 66 64 70 59 73 C 53 75 46 75 38 71 Z" fill="#221714"/>
  <path d="M 50 27 C 54 26 58 27 61 30 C 64 33 65 36 65 40 C 65 43 63 45 60 47 C 59 48 58 49 58 50 C 59 52 59 54 59 56 C 59 60 56 63 52 65 C 48 66 45 65 42 63" stroke="#f2e5c9" stroke-width="2" stroke-linecap="round" stroke-linejoin="round" fill="none"/>
  <path d="M 52 39 L 55 39" stroke="#f2e5c9" stroke-width="1.8" stroke-linecap="round" fill="none"/>
  <path d="M 51 54 C 53 55 55 55 56.5 54" stroke="#f2e5c9" stroke-width="1.6" stroke-linecap="round" fill="none"/>
  <path d="M 45 67 C 47 69 50 70 53 70" stroke="#f2e5c9" stroke-width="1.4" stroke-linecap="round" opacity="0.75" fill="none"/>
  <path d="M 66 29 C 69 31 70 34 70 38" stroke="#f2e5c9" stroke-width="1.5" stroke-linecap="round" opacity="0.75" fill="none"/>
  <circle cx="48" cy="48" r="38" fill="none" stroke="#8f4b36" stroke-width="2"/>
</svg>