<?xml version="1.0" encoding="UTF-8"?>
<svg xmlns="http://www.w3.org/2000/svg" viewBox="0 0 96 96" role="img" aria-labelledby="title desc">
  <title>??????</title>
  <desc>?????????????????????</desc>
  <rect width="96" height="96" rx="24" fill="#f5ecde"/>
  <circle cx="48" cy="48" r="38" fill="#a45b43"/>
  <path d="M 20 80 C 28 65 39 60 49 60 C 59 60 70 65 78 80 L 78 86 L 20 86 Z" fill="#c98a61"/>
  <path d="M 33 78 C 35 70 41 64 49 64 C 57 64 63 70 65 78" stroke="#efe2c9" stroke-width="2" stroke-linecap="round" opacity="0.35" fill="none"/>
  
      <path d="M 32 44 C 34 24 43 17 52 17 C 60 17 67 23 69 36 C 64 29 59 26 51 26 C 42 26 36 32 32 44 Z" fill="#231916" opacity="0.9"/>
      <path d="M 31 45 C 35 28 43 19 53 19 C 62 19 69 28 70 43 C 66 38 62 36 56 36 C 48 36 41 39 35 46 Z" fill="#efe2c9" opacity="0.92"/>
    
  
  <path d="M 39 60 C 41 53 45 49 49 49 C 53 49 57 53 59 60 L 56 70 C 51 73 47 73 42 70 Z" fill="#efe2c9"/>
  <ellipse cx="49" cy="39" rx="13" ry="16" fill="#efe2c9"/>
  
  <path d="M 55 36 C 58 38 58 42 55 44 C 54.5 45 54.7 46 56.8 47.3" stroke="#231916" stroke-width="2.2" stroke-linecap="round" fill="none"/>
  <path d="M 46.8 36.9 L 50.3 36.9" stroke="#231916" stroke-width="1.8" stroke-linecap="round"/>
  <path d="M 49.4 46.4 C 50.8 47.2 52.6 47.2 54.1 46.3" stroke="#231916" stroke-width="1.6" stroke-linecap="round" fill="none"/>
  <path d="M 41 45 C 43 44 45 44 47 45 C 45.5 47.5 43.5 49 41 49 Z" fill="#231916"/>
  
  <path d="M 63 24 C 66 26 67 29 67 33" stroke="#efe2c9" stroke-width="1.5" stroke-linecap="round" opacity="0.7"/>
  <circle cx="48" cy="48" r="38" stroke="#8b4734" stroke-width="2" fill="none"/>
</svg>