<?xml version="1.0" encoding="UTF-8"?>
<svg xmlns="http://www.w3.org/2000/svg" viewBox="0 0 96 96" role="img" aria-labelledby="title desc" data-avatar-style="greek-profile-v2" data-character="eros">
  <title>Eros avatar</title>
  <desc>Winged youthful deity profile.</desc>
  <rect width="96" height="96" rx="24" fill="#f4ecdf"/>
  <circle cx="48" cy="48" r="38" fill="#a85e45"/>
  <path d="M 21 85 C 28 71 38 63 50 60 C 62 63 72 71 79 85 L 79 86 L 21 86 Z" fill="#cb8c61"/>
  <path d="M 31 78 C 35 71 41 66 50 63 C 58 66 64 71 68 78" stroke="#f2e5c9" stroke-width="2.1" stroke-linecap="round" opacity="0.28" fill="none"/>
  <g transform="translate(22 28) scale(-1 1)"><path d="M 0 0 C 6 -4 12 -4 18 -1 C 14 1 11 4 9 8 C 6 4 3 2 0 0 Z" fill="#221714" opacity="0.95"/><path d="M 2 1 C 7 0 11 1 15 4" stroke="#f2e5c9" stroke-width="1.6" stroke-linecap="round" fill="none"/></g><g transform="translate(56 25) scale(1 1)"><path d="M 0 0 C 6 -4 12 -4 18 -1 C 14 1 11 4 9 8 C 6 4 3 2 0 0 Z" fill="#221714" opacity="0.95"/><path d="M 2 1 C 7 0 11 1 15 4" stroke="#f2e5c9" stroke-width="1.6" stroke-linecap="round" fill="none"/></g><path d="M 42 35 C 45 28 50 24 57 24 C 63 24 68 28 70 34 C 66 31 62 30 57 30 C 50 30 45 31 42 35 Z" fill="#221714"/><circle cx="46" cy="28" r="3.4" fill="#221714"/><circle cx="53" cy="24" r="3.7" fill="#221714"/><circle cx="60" cy="26" r="3.3" fill="#221714"/>
  <path d="M 38 70 C 37 62 37 55 39 47 C 41 36 46 28 53 24 C 59 21 66 22 70 27 C 74 31 75 36 74 41 C 73 45 71 48 68 50 C 67 52 67 54 68 57 C 69 61 67 65 63 68 C 58 72 50 73 38 70 Z" fill="#221714"/>
  <path d="M 50 28 C 54 27 58 28 61 31 C 64 34 65 38 64 41 C 63 44 61 46 58 47 C 59 49 60 51 60 54 C 60 58 57 61 53 63 C 49 64 46 64 43 61" stroke="#f2e5c9" stroke-width="2" stroke-linecap="round" stroke-linejoin="round" fill="none"/>
  <path d="M 52 39 L 55 39" stroke="#f2e5c9" stroke-width="1.8" stroke-linecap="round" fill="none"/>
  <path d="M 51 53 C 53 54 55 54 57 53" stroke="#f2e5c9" stroke-width="1.6" stroke-linecap="round" fill="none"/>
  <path d="M 45 65 C 47 67 50 68 53 68" stroke="#f2e5c9" stroke-width="1.4" stroke-linecap="round" opacity="0.75" fill="none"/>
  <circle cx="66" cy="29" r="2.2" fill="#f2e5c9" opacity="0.8"/>
  <circle cx="48" cy="48" r="38" fill="none" stroke="#8f4b36" stroke-width="2"/>
</svg>