<?xml version="1.0" encoding="UTF-8"?>
<svg xmlns="http://www.w3.org/2000/svg" viewBox="0 0 96 96" role="img" aria-labelledby="title desc">
  <title>?????</title>
  <desc>????????????????</desc>
  <rect width="96" height="96" rx="24" fill="#f5ecde"/>
  <circle cx="48" cy="48" r="38" fill="#a45b43"/>
  <path d="M 20 80 C 28 65 39 60 49 60 C 59 60 70 65 78 80 L 78 86 L 20 86 Z" fill="#c98a61"/>
  <path d="M 33 78 C 35 70 41 64 49 64 C 57 64 63 70 65 78" stroke="#efe2c9" stroke-width="2" stroke-linecap="round" opacity="0.35" fill="none"/>
  
      <path d="M 35 41 C 35 29 42 21 51 21 C 58 21 64 25 66 33 C 61 29 56 27 51 27 C 43 27 38 31 35 41 Z" fill="#231916"/>
      <circle cx="40" cy="29" r="3.4" fill="#231916"/><circle cx="47" cy="23" r="3.8" fill="#231916"/><circle cx="55" cy="23" r="3.8" fill="#231916"/><circle cx="61" cy="29" r="3.4" fill="#231916"/>
    
  <g transform="translate(28 28) scale(-1 1)"><path d="M 0 0 c 6 -2 10 0 13 5 c -5 -0.6 -8 0.8 -11 4 c 1.2 -4.4 0.7 -6.7 -2 -9 z" fill="#231916" opacity="0.9"/><path d="M 1 2 c 4 -1.4 7 0 9 3" stroke="#efe2c9" stroke-width="1.3" stroke-linecap="round" fill="none"/></g><g transform="translate(62 26) scale(1 1)"><path d="M 0 0 c 6 -2 10 0 13 5 c -5 -0.6 -8 0.8 -11 4 c 1.2 -4.4 0.7 -6.7 -2 -9 z" fill="#231916" opacity="0.9"/><path d="M 1 2 c 4 -1.4 7 0 9 3" stroke="#efe2c9" stroke-width="1.3" stroke-linecap="round" fill="none"/></g>
  <path d="M 39 60 C 41 53 45 49 49 49 C 53 49 57 53 59 60 L 56 70 C 51 73 47 73 42 70 Z" fill="#efe2c9"/>
  <ellipse cx="49" cy="39" rx="13" ry="16" fill="#efe2c9"/>
  
  <path d="M 55 36 C 58 38 58 42 55 44 C 54.5 45 54.7 46 56.8 47.3" stroke="#231916" stroke-width="2.2" stroke-linecap="round" fill="none"/>
  <path d="M 46.8 36.9 L 50.3 36.9" stroke="#231916" stroke-width="1.8" stroke-linecap="round"/>
  <path d="M 49.4 46.4 C 50.8 47.2 52.6 47.2 54.1 46.3" stroke="#231916" stroke-width="1.6" stroke-linecap="round" fill="none"/>
  <circle cx="41" cy="45" r="2.8" fill="#231916"/><circle cx="58" cy="45" r="2.5" fill="#231916"/>
  
  <circle cx="66" cy="24" r="2.4" fill="#efe2c9" opacity="0.75"/>
  <circle cx="48" cy="48" r="38" stroke="#8b4734" stroke-width="2" fill="none"/>
</svg>