<?xml version="1.0" encoding="UTF-8"?>
<svg xmlns="http://www.w3.org/2000/svg" viewBox="0 0 96 96" role="img" aria-labelledby="title desc">
  <title>?????</title>
  <desc>????????????????????</desc>
  <rect width="96" height="96" rx="24" fill="#f5ecde"/>
  <circle cx="48" cy="48" r="38" fill="#a45b43"/>
  <path d="M 20 80 C 28 65 39 60 49 60 C 59 60 70 65 78 80 L 78 86 L 20 86 Z" fill="#c98a61"/>
  <path d="M 33 78 C 35 70 41 64 49 64 C 57 64 63 70 65 78" stroke="#efe2c9" stroke-width="2" stroke-linecap="round" opacity="0.35" fill="none"/>
  
      <path d="M 35 40 C 36 29 43 22 52 22 C 58 22 64 26 66 34 C 62 30 57 28 52 28 C 44 28 39 32 35 40 Z" fill="#231916"/>
    
  
  <path d="M 39 60 C 41 53 45 49 49 49 C 53 49 57 53 59 60 L 56 70 C 51 73 47 73 42 70 Z" fill="#efe2c9"/>
  <ellipse cx="49" cy="39" rx="13" ry="16" fill="#efe2c9"/>
  
  <path d="M 55 36 C 58 38 58 42 55 44 C 54.5 45 54.7 46 56.8 47.3" stroke="#231916" stroke-width="2.2" stroke-linecap="round" fill="none"/>
  <path d="M 46.8 36.9 L 50.3 36.9" stroke="#231916" stroke-width="1.8" stroke-linecap="round"/>
  <path d="M 49.4 46.4 C 50.8 47.2 52.6 47.2 54.1 46.3" stroke="#231916" stroke-width="1.6" stroke-linecap="round" fill="none"/>
  
      <path d="M 40 45 C 42 43.8 45 43.2 47 44 C 45.8 46.5 43.5 48 40 49 Z" fill="#231916"/>
      <path d="M 58 44 C 59.5 44 60.8 45.5 60.5 48 C 58.8 47.6 57.8 46.4 57.5 44.8 Z" fill="#231916"/>
    
  
  <circle cx="66" cy="27" r="1.8" fill="#efe2c9" opacity="0.7"/>
  <circle cx="48" cy="48" r="38" stroke="#8b4734" stroke-width="2" fill="none"/>
</svg>