<?xml version="1.0" encoding="UTF-8"?>
<svg xmlns="http://www.w3.org/2000/svg" viewBox="0 0 96 96" role="img" aria-labelledby="title desc" data-avatar-style="greek-profile-v2" data-character="pausanias">
  <title>Pausanias avatar</title>
  <desc>Orderly mature speaker with trimmed beard.</desc>
  <rect width="96" height="96" rx="24" fill="#f4ecdf"/>
  <circle cx="48" cy="48" r="38" fill="#a85e45"/>
  <path d="M 21 85 C 28 71 38 63 50 60 C 62 63 72 71 79 85 L 79 86 L 21 86 Z" fill="#221714"/>
  <path d="M 31 78 C 35 71 41 66 50 63 C 58 66 64 71 68 78" stroke="#f2e5c9" stroke-width="2.1" stroke-linecap="round" opacity="0.28" fill="none"/>
  <path d="M 41 33 C 44 26 50 22 57 22 C 65 22 70 27 72 34 C 68 30 64 29 59 29 C 53 29 46 30 41 33 Z" fill="#221714"/><path d="M 43 29 L 69 29" stroke="#f2e5c9" stroke-width="2" opacity="0.65" stroke-linecap="round"/>
  <path d="M 36 71 C 35 63 35 54 37 45 C 39 35 44 27 51 23 C 57 20 64 21 69 26 C 73 30 75 36 75 42 C 75 46 74 49 71 51 C 69 53 66 54 63 54 C 65 56 66 59 66 62 C 66 67 63 71 58 74 C 52 76 44 75 36 71 Z" fill="#221714"/>
  <path d="M 49 27 C 54 26 59 28 62 32 C 65 35 66 39 65 43 C 64 46 62 48 59 49 C 60 51 61 53 61 56 C 61 60 58 63 53 65 C 49 66 45 66 42 63" stroke="#f2e5c9" stroke-width="2" stroke-linecap="round" stroke-linejoin="round" fill="none"/>
  <path d="M 52 39 L 56 39" stroke="#f2e5c9" stroke-width="1.8" stroke-linecap="round" fill="none"/>
  <path d="M 52 55 C 54 56 56 56 58 55" stroke="#f2e5c9" stroke-width="1.6" stroke-linecap="round" fill="none"/>
  <path d="M 45 67 C 47 69 50 70 53 70" stroke="#f2e5c9" stroke-width="1.4" stroke-linecap="round" opacity="0.75" fill="none"/>
  <path d="M 47 55 C 50 55 54 56 57 59 C 58.5 62 57.5 65 54 67 C 49 68 44 66 41 62 C 40 59 41 57 43 56 Z" fill="#221714"/>
  <circle cx="48" cy="48" r="38" fill="none" stroke="#8f4b36" stroke-width="2"/>
</svg>