<?xml version="1.0" encoding="UTF-8"?>
<svg xmlns="http://www.w3.org/2000/svg" viewBox="0 0 96 96" role="img" aria-labelledby="title desc">
  <title>??????</title>
  <desc>???????????????????</desc>
  <rect width="96" height="96" rx="24" fill="#f5ecde"/>
  <circle cx="48" cy="48" r="38" fill="#a45b43"/>
  <path d="M 20 80 C 28 65 39 60 49 60 C 59 60 70 65 78 80 L 78 86 L 20 86 Z" fill="#231916"/>
  <path d="M 33 78 C 35 70 41 64 49 64 C 57 64 63 70 65 78" stroke="#efe2c9" stroke-width="2" stroke-linecap="round" opacity="0.35" fill="none"/>
  
      <path d="M 36 38 C 36 30 40 24 46 22 C 41 28 40 38 42 46 C 39 45 37 42 36 38 Z" fill="#231916"/>
      <path d="M 61 22 C 66 25 68 32 66 39 C 65 42 64 44 62 46 C 63 40 62 30 56 23 Z" fill="#231916"/>
    
  
  <path d="M 39 60 C 41 53 45 49 49 49 C 53 49 57 53 59 60 L 56 70 C 51 73 47 73 42 70 Z" fill="#efe2c9"/>
  <ellipse cx="49" cy="37" rx="13" ry="17" fill="#efe2c9"/>
  <path d="M 41 31 C 43 30 45 29 47 29" stroke="#231916" stroke-width="1.2" stroke-linecap="round" opacity="0.55"/>
  <path d="M 55 34 C 58 36 58 40 55 42 C 54.5 43 54.7 44 56.8 45.3" stroke="#231916" stroke-width="2.2" stroke-linecap="round" fill="none"/>
  <path d="M 46.8 34.9 L 50.3 34.9" stroke="#231916" stroke-width="1.8" stroke-linecap="round"/>
  <path d="M 49.4 44.4 C 50.8 45.2 52.6 45.2 54.1 44.3" stroke="#231916" stroke-width="1.6" stroke-linecap="round" fill="none"/>
  
  
      <path d="M 42 49 C 47 48 52 49 57 53 C 59 56 58 61 53 64 C 47 65 41 61 39 54 C 39 51 40 49.5 42 49 Z" fill="#231916"/>
      <path d="M 45 53 C 49 52 53 54 55 58" stroke="#efe2c9" stroke-width="1.4" stroke-linecap="round" fill="none" opacity="0.5"/>
    
  <circle cx="63" cy="24" r="1.7" fill="#efe2c9" opacity="0.75"/>
  <circle cx="48" cy="48" r="38" stroke="#8b4734" stroke-width="2" fill="none"/>
</svg>