<?xml version="1.0" encoding="UTF-8"?>
<svg xmlns="http://www.w3.org/2000/svg" viewBox="0 0 96 96" role="img" aria-labelledby="title desc" data-avatar-style="greek-profile-v2" data-character="socrates">
  <title>Socrates avatar</title>
  <desc>Bald mature philosopher in a Greek profile medallion.</desc>
  <rect width="96" height="96" rx="24" fill="#f4ecdf"/>
  <circle cx="48" cy="48" r="38" fill="#a85e45"/>
  <path d="M 21 85 C 28 71 38 63 50 60 C 62 63 72 71 79 85 L 79 86 L 21 86 Z" fill="#221714"/>
  <path d="M 31 78 C 35 71 41 66 50 63 C 58 66 64 71 68 78" stroke="#f2e5c9" stroke-width="2.1" stroke-linecap="round" opacity="0.28" fill="none"/>
  
  <path d="M 35 72 C 34 64 35 55 37 46 C 39 35 43 27 49 24 C 53 22 58 22 62 24 C 66 27 68 31 69 36 C 70 39 70 42 69 45 C 68 47 67 49 65 50 C 66 52 67 55 67 58 C 67 64 63 69 57 73 C 51 76 43 75 35 72 Z" fill="#221714"/>
  <path d="M 47 28 C 51 27 55 28 58 31 C 60 34 61 38 60 41 C 59 44 57 46 55 47 C 56 49 57 51 57 54 C 57 58 55 62 51 64 C 47 66 44 66 41 63" stroke="#f2e5c9" stroke-width="2" stroke-linecap="round" stroke-linejoin="round" fill="none"/>
  <path d="M 49 39 L 53 39" stroke="#f2e5c9" stroke-width="1.8" stroke-linecap="round" fill="none"/>
  <path d="M 49 54 C 51 55 53 55 55 54" stroke="#f2e5c9" stroke-width="1.6" stroke-linecap="round" fill="none"/>
  <path d="M 43 67 C 46 69 49 70 52 70" stroke="#f2e5c9" stroke-width="1.4" stroke-linecap="round" opacity="0.75" fill="none"/>
  <path d="M 46 54 C 49 54 53 55 56 58 C 58 61 58 65 56 68 C 51 71 46 70 41 66 C 39 63 39 59 40 56 C 42 55 44 54 46 54 Z" fill="#221714"/><path d="M 45 59 C 48 59 51 60 53 62" stroke="#f2e5c9" stroke-width="1.3" stroke-linecap="round" opacity="0.55" fill="none"/>
  <circle cx="48" cy="48" r="38" fill="none" stroke="#8f4b36" stroke-width="2"/>
</svg>